<svg width="180" height="160" viewBox="0 0 180 160" xmlns="http://www.w3.org/2000/svg">
  <defs>
    <linearGradient id="bottomGradient" x1="0%" y1="0%" x2="0%" y2="100%">
      <stop offset="0%" stop-color="#FF9ECD" />
      <stop offset="100%" stop-color="#E77CB3" />
    </linearGradient>
    <linearGradient id="middleGradient" x1="0%" y1="0%" x2="0%" y2="100%">
      <stop offset="0%" stop-color="#FFC5E5" />
      <stop offset="100%" stop-color="#E77CB3" />
    </linearGradient>
    <linearGradient id="topGradient" x1="0%" y1="0%" x2="0%" y2="100%">
      <stop offset="0%" stop-color="#FFE1F0" />
      <stop offset="100%" stop-color="#E77CB3" />
    </linearGradient>
  </defs>

  <g transform="translate(40, 40)">
    <path d="M10 110 L110 110 C120 110 130 100 130 90 L130 70 C130 60 120 50 110 50 L10 50 C0 50 -10 60 -10 70 L-10 90 C-10 100 0 110 10 110 Z"
          fill="url(#bottomGradient)" stroke="#E77CB3" stroke-width="1.5" stroke-linecap="round" stroke-linejoin="round"/>

    <path d="M20 70 L100 70 C110 70 120 60 120 50 L120 30 C120 20 110 10 100 10 L20 10 C10 10 0 20 0 30 L0 50 C0 60 10 70 20 70 Z"
          fill="url(#middleGradient)" stroke="#E77CB3" stroke-width="1.5" stroke-linecap="round" stroke-linejoin="round"/>

    <path d="M30 30 L90 30 C100 30 110 20 110 10 L110 -10 C110 -20 100 -30 90 -30 L30 -30 C20 -30 10 -20 10 -10 L10 10 C10 20 20 30 30 30 Z"
          fill="url(#topGradient)" stroke="#E77CB3" stroke-width="1.5" stroke-linecap="round" stroke-linejoin="round"/>

    <circle cx="60" cy="-20" r="4" fill="#FF6B9E"/>
    <circle cx="35" cy="20" r="3" fill="#FF6B9E"/>
    <circle cx="85" cy="20" r="3" fill="#FF6B9E"/>
    <circle cx="25" cy="60" r="4" fill="#FF6B9E"/>
    <circle cx="95" cy="60" r="4" fill="#FF6B9E"/>

    <polygon points="58,-35 68,-35 63,-45" fill="#E77CB3"/>
  </g>
</svg>